<?xml version="1.0" encoding="UTF-8"?><svg id="Layer_1" xmlns="http://www.w3.org/2000/svg" viewBox="0 0 1349.22 406.19"><defs><style>.cls-1{letter-spacing:0em;}.cls-2{font-family:AgencyFB-Reg, 'Agency FB';font-size:299.53px;}</style></defs><g><text class="cls-2" transform="translate(290.7 264.18)"><tspan x="0" y="0">Neko</tspan><tspan class="cls-1" x="456.46" y="0">News</tspan></text><g><path d="M37.91,52.41c4.46-.11,8.92-.21,13.39-.34,4.2-.13,8.32,.44,12.41,1.33,5.18,1.12,10.01,3.09,14.44,5.97,8.26,5.37,17.33,7.46,27.07,6.61,4.73-.42,9.42-1.4,14.16-1.74,5.79-.41,11.61-.64,17.41-.53,6.51,.13,13.01,.72,19.52,1.12,3.87,.24,7.73,.5,11.6,.73,4.76,.29,8.77-1.36,12.23-4.61,5.64-5.3,12.01-9.63,18.43-13.92,5.42-3.62,10.82-7.27,16.18-10.97,3.16-2.19,5.76-1.83,7.81,1.46,2.89,4.62,5.7,9.3,8.45,14.01,3.92,6.72,7.74,13.51,11.63,20.25,4.7,8.15,6.04,17.07,6.29,26.29,.12,4.44,.41,8.89,1.76,13.18,.83,2.65,2.07,5.01,4.15,6.94,5.88,5.45,11.72,10.93,17.56,16.42,6.01,5.64,11.89,11.39,16.49,18.31,4.8,7.23,7.82,15.05,7.87,23.85,.04,6.91-1.76,13.37-4.74,19.58-2.74,5.72-6.27,10.89-10.27,15.78-.19,.23-.35,.49-.55,.79-.9-2.52-1.56-4.88-2.56-7.09-3.19-7.11-8.67-12.04-15.57-15.35-10.08-4.83-20.8-6.38-31.9-5.65-.65,.04-1.3,.18-1.97,.39,7.58,3.32,15.39,6.13,22.48,10.4-.05,.14-.11,.28-.16,.41-2.74-.6-5.47-1.26-8.22-1.78-8.22-1.56-16.42-3.2-24.67-4.51-2.96-.47-6.06-.21-9.08-.01-6.91,.46-13.81,.73-20.69-.37-.2-.03-.39-.08-.59-.4,2.47-.31,4.94-.76,7.42-.91,11.95-.74,23.25-3.84,33.9-9.25,6.01-3.05,11.68-6.58,15.85-12.05,2.38-3.13,3.87-6.61,3.68-10.62-.23-4.64-2.52-8.24-5.83-11.31-3.88-3.59-8.46-5.72-13.64-6.8-3.18-.67-6.27-1.73-9.4-2.62-.34-.1-.66-.24-.98-.39-2.67-1.2-2.83-1.5-2.25-4.35,2.07-10.1,3.73-20.25,4.28-30.56,.67-12.48-.31-24.81-3.8-36.85-1.2-4.13-2.8-8.15-4.22-12.22-.1-.28-.27-.53-.39-.77-.17,.02-.28,0-.34,.03-6.31,4.8-12.67,9.53-18.91,14.42-5.72,4.49-10.25,10.14-14.86,15.71-3.48,4.2-7.15,8.25-10.75,12.35-.4,.45-.88,.83-1.55,1.12,1.81-7.18,3.62-14.36,5.48-21.77-1.53,.34-2.87,.67-4.23,.93-7.96,1.49-15.92,2.98-23.89,4.44-8.54,1.57-16.99,3.46-25.03,6.88-7.37,3.14-14.06,7.32-19.72,13-1.95,1.95-3.56,4.24-5.43,6.49-.93-2.02-1.74-4.09-2.8-6.01-2.29-4.15-4.47-8.41-7.14-12.31-4.16-6.08-10.25-9.65-17.12-11.98-2.11-.72-4.25-1.36-6.63-1.79,1.07,2.03,2.14,4.07,3.21,6.1,2.73,5.22,5.71,10.33,8.12,15.7,3.21,7.12,3.69,14.49,.19,21.72-1.26,2.59-2.97,4.96-4.48,7.42-.2,0-.4,0-.6,.01-.4-.8-1.13-1.59-1.15-2.39-.13-7.67-2.01-14.98-4.5-22.16-3.78-10.89-8.98-21.12-14.65-31.13-2.68-4.74-5.5-9.41-8.26-14.11,.01-.17,.02-.35,.03-.52Z"/><path d="M228.54,247.19c-2.03-.17-3.92-.2-5.77-.52-8.6-1.5-16.79,.26-24.95,2.78-12.65,3.92-25.33,7.74-38.02,11.51-8.36,2.48-16.96,3.11-25.63,2.95-10.31-.19-20.36-1.77-29.89-5.84-15.04-6.42-25.63-17.11-30.94-32.71-1.26-3.69-2.1-7.52-3.23-11.61-2,.25-4.31,.46-6.58,.85-9.19,1.57-17.62,5.2-25.7,9.7-6.38,3.56-12.67,7.29-19,10.95-.36,.21-.74,.4-1.31,.38,1.08-1.28,2.12-2.6,3.25-3.85,11.43-12.69,25.8-19.37,42.72-20.8,2.19-.19,4.39-.3,6.59-.35,.4,0,.98,.34,1.19,.69,3.63,6.18,7.35,12.32,10.77,18.62,2.96,5.46,7.18,9.63,12.18,13.13,5.82,4.08,12.02,7.42,19.11,8.6,10.15,1.69,20.12,.79,29.76-2.91,6.49-2.49,12.83-5.37,19.38-7.66,8.76-3.06,17.6-5.92,26.51-8.5,7.21-2.09,14.59-2.41,21.89-.13,6.13,1.92,11.56,4.97,15.54,10.18,.98,1.28,1.9,2.61,2.12,4.54Z"/><path d="M140.43,167.54c-4.42,3.31-8.74,6.54-13.31,9.96,.12-.77,.15-1.3,.29-1.8,1.12-3.88,1.98-7.85,3.44-11.6,2.39-6.14,6.79-10.43,12.97-12.95,7.64-3.11,15.44-4.29,23.47-2.04,3.28,.92,6.48,2.25,9.56,3.72,2.99,1.42,3.42,3.14,2.12,6.17-2.18,5.09-4.99,9.74-9.56,13.03-5.41,3.9-11.51,5.46-18.12,4.5-4.29-.62-7.32-3.24-9.6-6.81-.42-.66-.79-1.36-1.27-2.2Z"/><path d="M136.49,222.6c-3.61,4.57-7.29,9.02-13.48,9.9-3.89,.56-7.31-.98-10.71-2.65-6.39-3.14-10.55-8.5-14.46-14.14-2.54-3.66-5.21-7.23-8.97-9.77-1.44-.97-3.01-1.76-4.63-2.71,3.46-2.36,7.16-3.93,11.29-4.42,6.26-.74,12.02,1.07,17.65,3.52,1.2,.52,2.37,1.12,3.78,1.79-1.81,1.72-3.48,3.31-5.16,4.89-1.54,1.45-3.07,2.91-4.65,4.31-.65,.57-.7,1.03-.27,1.78,3.95,6.84,9.85,10.2,17.72,9.63,3.44-.25,6.84-1.12,10.25-1.73,.55-.1,1.09-.27,1.63-.41Z"/><path d="M93.8,173.79c-2.3,.39-4.52,.87-6.77,1.12-4.13,.46-8.19,.19-12-1.69-3.11-1.54-5.69-3.73-7.65-6.6-.92-1.34-1.9-2.65-2.64-4.09-1.5-2.93-1.28-5.8,.83-8.39,2.04-2.5,4.55-4.43,7.64-5.44,4.55-1.5,8.43,.11,11.3,4.45,2.62,3.96,4.36,8.32,6.11,12.69,1.03,2.57,2.05,5.13,3.18,7.95Z"/><path d="M64.6,204.26c-21.92-4.74-43.3-2.26-64.37,4.72-.08-.15-.15-.3-.23-.45,2.05-1.45,3.99-3.06,6.15-4.31,6.71-3.88,14.07-5.7,21.73-6.48,8.22-.84,16.35-.34,24.39,1.64,4.32,1.07,8.46,2.6,12.33,4.88Z"/><path d="M240.59,218.75c-19.75-8.25-39.81-15.2-61.66-14.83,1.65-.24,3.29-.51,4.94-.71,1.7-.21,3.41-.37,5.12-.52,8.24-.74,16.44-.62,24.56,1.18,10.18,2.25,19.01,7.01,26.62,14.09,.19,.18,.44,.29,.67,.43-.08,.12-.17,.24-.25,.36Z"/></g></g><path d="M1167.68,406.19c-31.21,0-77.29-2.73-99.2-6.64-26.45-4.72-68.13-14.23-116.39-25.25-119.67-27.31-281.82-53.32-372.63-54.46-126.45-1.65-438.45,40.15-441.57,40.74-4.42,.83-6.52,0-6.52-1.63s.47-4.06,4.89-4.89c12.8-2.4,313.61-63.49,441.67-61.92,92.54,1.17,265.68,16.52,386.06,43.99,48.05,10.97,94.23,21.77,120.58,24.44,112.43,11.41,205.69,16,219.97-55.4,14.85-74.23-25.29-99.1-28.12-100.54-4.01-2.04-5.61-6.94-3.58-10.94,2.03-4.01,6.91-5.62,10.93-3.6,.83,.42,20.41,10.42,37.98,31.05,16.41,19.27,34.06,51.76,25,97.04-7.94,39.72-33.43,68.54-99.24,81.5-27.72,5.46-52.79,6.52-79.84,6.52Z"/></svg>