<?xml version="1.0" encoding="utf-8"?>
<!-- Generator: Adobe Illustrator 26.2.1, SVG Export Plug-In . SVG Version: 6.00 Build 0)  -->
<svg version="1.1" id="Layer_1" xmlns="http://www.w3.org/2000/svg" xmlns:xlink="http://www.w3.org/1999/xlink" x="0px" y="0px"
	 viewBox="0 0 2500 449.8" style="enable-background:new 0 0 2500 449.8;" xml:space="preserve">
<style type="text/css">
	.st0{fill-rule:evenodd;clip-rule:evenodd;fill:#FFFFFF;fill-opacity:0;}
	.st1{fill-rule:evenodd;clip-rule:evenodd;}
	.st2{fill-rule:evenodd;clip-rule:evenodd;fill:#FFFFFF;}
	.st3{fill-rule:evenodd;clip-rule:evenodd;fill:#0088CC;}
	.st4{fill-rule:evenodd;clip-rule:evenodd;fill:#6360A6;}
	.st5{fill-rule:evenodd;clip-rule:evenodd;fill:#B44549;}
	.st6{fill-rule:evenodd;clip-rule:evenodd;fill:#D76F2C;}
	.st7{fill-rule:evenodd;clip-rule:evenodd;fill:#ECB731;}
	.st8{fill-rule:evenodd;clip-rule:evenodd;fill:#64B054;}
</style>
<g>
	<path class="st0" d="M0-1025.1h2500v2500H0V-1025.1z"/>
	<path class="st1" d="M1849,89.1l129.5,282.7l56.8-115.8l56.8,115.8l127.2-282.7h-64.7l-68.1,154.4l-25-52.2L2109,90.2l-60.2-1.1
		l-13.6,37.5l-18.2-37.5h-57.9l46.6,99.9l-23.9,53.4l-72.7-153.3L1849,89.1L1849,89.1L1849,89.1z M660.5,78L829.2,237V88.1h54.6V364
		L715.4,201.8v153.1h-55V78L660.5,78z M914.3,88.8h115.2c17.6,0,67.6,13.4,69.4,67.3c1.4,40.1-31.7,58.8-31.7,58.8
		c18,8.5,45.4,29.2,45.4,71.5c0,41.2-36.3,71.5-67.3,71.5h-131V88.8L914.3,88.8z M969.6,197.3h41.9c16.5-2.1,29.2-14.8,29.2-32.7
		c0-19-16.6-29.6-30.3-30.6h-40.9V197.3z M970,314.6h48.6c12.3-1.1,33.4-11.6,33.4-35.9c0-23.6-20.8-34.9-32-35.2h-50L970,314.6
		L970,314.6L970,314.6z M1321.1,146.4c-57.8-38.4-135.9,0.7-140.9,71.8c-2.1,86.3,83.1,121.9,140.9,84.5v55.3
		c-102.1,38-195.8-33.8-196.2-138.1c0.4-88.4,97.9-166.6,196.2-127.5V146.4L1321.1,146.4z M2318.5,257.7
		c-81.4-54.3-74.9-48.5-80.9-57.9c-6-9.4-23-57.9,16.2-99.6c39.2-41.7,118.4-6,118.4-6v53.7c0,0-67.3-39.2-86-3.4
		c-18.7,35.8,51.1,57,51.1,57s46.8,27.3,51.1,57.1c4.3,29.8,0.8,89.4-46.8,100.5c0,0-46,25.6-108.2-6.8l0.9-60.5
		c0,0,26.4,28.9,63.9,27.3C2335.6,317.3,2346.6,276.5,2318.5,257.7L2318.5,257.7L2318.5,257.7z M1685.8,86.9v270.8H1834l0.9-45.1
		h-90.5v-64.7h90.5v-50.2h-90.5v-60.5h90.5V86.9L1685.8,86.9L1685.8,86.9z M1436.5,78.5l168.7,160.6V88.7h54.6v278.6l-168.4-163.7
		v154.6h-54.9V78.5z"/>
	<path class="st2" d="M555.3,355.1c-7.8,3.5-16.5,5-25.7,5L160,359.9c-20.9-1.6-41.4-18.9-47.2-39.5c-6.2-20.6-0.2-41.9,13.4-57
		c13.2-13.6,30.1-19.2,48.9-17.1c-17.7-12.1-25.1-32-22.6-53.4c2.4-18.6,15.8-36.7,33-44.1c19.7-8.9,44.5-4,60,10.9
		c-3.2-10.9-4.9-26.5-0.5-37.7c5.3-17.6,22.4-33.3,39.8-37c23.2-5,45.4,3.8,58.7,23.7c2.5,3.7,4,8,6,11.9
		c6.7-19.1,26-34.9,45.6-36.9c20.2-2.6,39.4,6.1,52,23.1c9.9,14.2,13.3,35.3,6.9,52.3h0.8c14.7-13.2,36.9-18,55.8-10.7
		c18.1,6,33.4,25.2,35.9,44.2c2.7,21-4.4,39.4-20.3,53c24.1-1.4,47,11.4,56.9,33.8c8.7,19.6,6.1,45.8-8.6,61.7
		C568.7,347.1,562.3,352.1,555.3,355.1L555.3,355.1L555.3,355.1z"/>
	<path class="st3" d="M516.1,246.3l-136.7,91.4l46-109.4l21.8-51c8.8-16.5,25.5-27,43.7-27.3c17.4,0,32.8,8.4,42.6,23.4
		c10.1,15,10.6,39.6,0.6,54.8C529.5,235.4,523.4,241.6,516.1,246.3L516.1,246.3L516.1,246.3L516.1,246.3z"/>
	<path class="st4" d="M448.1,160l-67.6,159.8l-3-17.4l-20.3-131c-1-7.6,2.5-15,8.8-19.2l9.7-5.8c0.6-2-2.3-2.7-3.6-3.4l-19-0.2
		c-1.2-18.9,7.1-36,23.1-46.3c12.4-8.1,31.3-10.2,45.2-3.7c18,7.3,30.5,26.5,30.8,46C452.1,146.1,450.8,153.5,448.1,160L448.1,160
		L448.1,160L448.1,160z"/>
	<path class="st5" d="M318.3,320.3l-66.5-160.2c-7.1-17.2-4.1-39.7,8.1-53.6c13.1-14.6,31.5-20.7,50.5-15.8
		c16.1,4,31.2,19.4,35.1,35.8c1.9,6.2,1.6,13.6,1.2,20.3L318.3,320.3L318.3,320.3L318.3,320.3z"/>
	<path class="st6" d="M176,240.5c-13.7-11.9-19.8-27.7-17.8-46c2-18.5,16.6-36.6,34-42.2c17.9-5.6,37.4-1.2,50.4,12.2
		c5.4,5.2,8.8,11.4,11.7,17.7L318.5,338L176,240.5L176,240.5L176,240.5z"/>
	<path class="st7" d="M161.4,354.2c-17.8-2-31.5-11.6-39.9-27.9c-8.5-16.5-6.3-39.8,5.1-54.4c12.4-14.9,30.3-22.3,48.4-18.7
		c7.4,1.2,13.5,4.4,19.4,8l138.4,93L161.4,354.2z"/>
	<path class="st8" d="M537.1,354.2c17.8-2,31.5-11.6,39.9-27.9c8.5-16.5,6.3-39.8-5.1-54.4c-12.4-14.9-30.3-22.3-48.4-18.7
		c-7.4,1.2-13.5,4.4-19.4,8l-138.4,93L537.1,354.2L537.1,354.2L537.1,354.2z"/>
</g>
</svg>
