<?xml version="1.0" encoding="utf-8"?>
<!-- Generator: Adobe Illustrator 27.0.0, SVG Export Plug-In . SVG Version: 6.00 Build 0)  -->
<svg version="1.1" id="Layer_1" xmlns="http://www.w3.org/2000/svg" xmlns:xlink="http://www.w3.org/1999/xlink" x="0px" y="0px"
	 viewBox="0 0 448 512" style="enable-background:new 0 0 448 512;" xml:space="preserve">
<style type="text/css">
	.st0{fill:#D6D9C5;}
</style>
<path class="st0" d="M6.1,261.9l19.8,19.8c4.7,4.7,12.3,4.7,17,0L198,126.6V468c0,6.6,5.4,12,12,12h28c6.6,0,12-5.4,12-12V126.6
	l155.1,155.1c4.7,4.7,12.3,4.7,17,0l19.8-19.8c4.7-4.7,4.7-12.3,0-17L232.5,35.5c-4.7-4.7-12.3-4.7-17,0L6.1,244.9
	C1.4,249.6,1.4,257.2,6.1,261.9z"/>
</svg>
