<?xml version="1.0" encoding="utf-8"?>
<!-- Generator: Adobe Illustrator 27.0.0, SVG Export Plug-In . SVG Version: 6.00 Build 0)  -->
<svg version="1.1" id="Layer_1" xmlns="http://www.w3.org/2000/svg" xmlns:xlink="http://www.w3.org/1999/xlink" x="0px" y="0px"
	 viewBox="0 0 512 512" style="enable-background:new 0 0 512 512;" xml:space="preserve">
<style type="text/css">
	.st0{opacity:0.4;enable-background:new    ;}
</style>
<path class="st0" d="M498,142.1l-56.6,56.6l-128-128l56.5-56.5c18.7-18.8,49.1-18.8,67.9,0c0,0,0,0,0,0L498,74.2
	C516.8,92.9,516.8,123.3,498,142.1C498,142.1,498,142.1,498,142.1z"/>
<path d="M12.9,371.1L0.2,485.3c-1.5,13.2,8,25,21.2,26.5c1.8,0.2,3.5,0.2,5.3,0l114.1-12.6l278-278l-128-128L12.9,371.1z"/>
</svg>
