<?xml version="1.0" encoding="utf-8"?>
<!-- Generator: Adobe Illustrator 27.0.0, SVG Export Plug-In . SVG Version: 6.00 Build 0)  -->
<svg version="1.1" id="Layer_1" xmlns="http://www.w3.org/2000/svg" xmlns:xlink="http://www.w3.org/1999/xlink" x="0px" y="0px"
	 viewBox="0 0 448 512" style="enable-background:new 0 0 448 512;" xml:space="preserve">
<style type="text/css">
	.st0{opacity:0.4;enable-background:new    ;}
</style>
<path class="st0" d="M53.2,467L32,96h384l-21.2,371c-1.6,25.3-22.6,45-47.9,45H101.1C75.8,512,54.8,492.3,53.2,467z"/>
<path d="M0,80V48c0-8.8,7.2-16,16-16h120l9.4-18.7c4-8.2,12.3-13.3,21.4-13.3h114.3c9.1,0,17.4,5.1,21.5,13.3L312,32h120
	c8.8,0,16,7.2,16,16v32c0,8.8-7.2,16-16,16H16C7.2,96,0,88.8,0,80z"/>
</svg>
